Coordinates
version=1
nRows=37
nColumns=38
inDegrees=no

Units are S.I. units (second, meters, Newtons, ...)
If the header above contains a line with 'inDegrees', this indicates whether rotational values are in degrees (yes) or radians (no).

endheader
time	pelvis_tilt	pelvis_list	pelvis_rotation	pelvis_tx	pelvis_ty	pelvis_tz	hip_flexion_r	hip_adduction_r	hip_rotation_r	knee_angle_r	ankle_angle_r	subtalar_angle_r	mtp_angle_r	hip_flexion_l	hip_adduction_l	hip_rotation_l	knee_angle_l	ankle_angle_l	subtalar_angle_l	mtp_angle_l	lumbar_extension	lumbar_bending	lumbar_rotation	arm_flex_r	arm_add_r	arm_rot_r	elbow_flex_r	pro_sup_r	wrist_flex_r	wrist_dev_r	arm_flex_l	arm_add_l	arm_rot_l	elbow_flex_l	pro_sup_l	wrist_flex_l	wrist_dev_l
0.54	-3.01337	1.51383	-1.68978	0.72684	0.166825	1.02908	-0.0432896	-0.15534	0.0681506	0.926391	-0.535657	0	0	0.181337	0.00789462	-0.475195	0.446791	-0.052826	0	0	-0.540559	-0.00732678	-0.0290125	-0.0944782	-0.404837	0.265434	0.906492	0.92123	0	0	-0.15076	-0.437588	0.0386109	0.785944	1.14785	0	0
0.55	-3.07852	1.51419	-1.61777	0.724773	0.179949	1.03137	-0.0214242	-0.153662	0.0614104	0.944673	-0.482224	0	0	0.16409	0.0063872	-0.473602	0.43894	-0.0514784	0	0	-0.536915	0.00143191	-0.0363067	-0.094048	-0.408085	0.264217	0.907443	0.928591	0	0	-0.150531	-0.439233	0.0334584	0.796616	1.15554	0	0
0.56	-3.07344	1.515	-1.61535	0.722781	0.193116	1.03334	0.00580504	-0.1699	0.0442242	0.954625	-0.453303	0	0	0.146726	0.00966429	-0.47276	0.429573	-0.0510264	0	0	-0.531786	0.0062295	-0.0450018	-0.0981834	-0.405769	0.250479	0.90945	0.953539	0	0	-0.15164	-0.441189	0.0244752	0.809885	1.16947	0	0
0.57	3.08667	1.51211	-1.48437	0.720827	0.20584	1.03679	0.0188622	-0.149607	0.0424681	0.96987	-0.39774	0	0	0.124703	0.00483843	-0.470474	0.417737	-0.0545195	0	0	-0.533025	0.0181597	-0.0491514	-0.0945872	-0.411174	0.254645	0.908007	0.950841	0	0	-0.146116	-0.443705	0.0244414	0.820452	1.17285	0	0
0.58	3.04356	1.51008	-1.43307	0.718972	0.218518	1.03974	0.0369182	-0.147783	0.0301305	0.975774	-0.35781	0	0	0.103318	0.00456087	-0.46857	0.404607	-0.0588013	0	0	-0.532672	0.0258049	-0.0544323	-0.0944536	-0.414895	0.254703	0.909235	0.951093	0	0	-0.141735	-0.447973	0.0240574	0.834272	1.17639	0	0
0.59	3.01428	1.50657	-1.39586	0.717236	0.23112	1.04277	0.051933	-0.14568	0.0156653	0.972085	-0.304281	0	0	0.0796711	0.00460657	-0.465992	0.38912	-0.0681843	0	0	-0.535163	0.0328105	-0.0588636	-0.0964659	-0.41608	0.247201	0.91224	0.959088	0	0	-0.137317	-0.452453	0.0217275	0.851129	1.18268	0	0
0.6	2.98932	1.5045	-1.364	0.715674	0.243734	1.04559	0.0678701	-0.143802	-0.00107331	0.956119	-0.293582	0	0	0.0577075	0.00413545	-0.465467	0.373964	-0.0704889	0	0	-0.534717	0.038867	-0.0617201	-0.0979469	-0.420482	0.248456	0.91456	0.955169	0	0	-0.131824	-0.45866	0.0251791	0.866826	1.18347	0	0
0.61	2.7885	1.46513	-1.14197	0.711201	0.255832	1.05462	0.0115127	-0.238197	-0.344895	0.910337	-0.374327	0	0	0.000902007	-0.0227723	-0.451202	0.348535	-0.0891031	0	0	-0.578798	0.0819097	-0.0605044	-0.0886294	-0.434499	0.247937	0.9198	0.954455	0	0	-0.108866	-0.450181	0.0212758	0.876664	1.19829	0	0
0.62	2.93387	1.50043	-1.29428	0.712674	0.268413	1.051	0.100564	-0.13925	-0.0352764	0.931933	-0.234375	0	0	0.0151112	0.00208578	-0.460314	0.342795	-0.086466	0	0	-0.537053	0.0516304	-0.0654982	-0.104242	-0.42463	0.237101	0.923098	0.965031	0	0	-0.119367	-0.469497	0.0255111	0.903294	1.19393	0	0
0.63	2.75553	1.4615	-1.0936	0.70861	0.280321	1.0595	0.0425727	-0.236579	-0.398558	0.894797	-0.319755	0	0	-0.0389141	-0.0272976	-0.444553	0.31938	-0.104148	0	0	-0.579351	0.0952631	-0.0628137	-0.0989883	-0.434171	0.226646	0.929637	0.975478	0	0	-0.0950449	-0.463049	0.026012	0.914093	1.20684	0	0
0.64	2.87335	1.49605	-1.21646	0.709677	0.292751	1.05594	0.131853	-0.13333	-0.0784273	0.896302	-0.181259	0	0	-0.0267568	-0.00195671	-0.451156	0.311893	-0.101982	0	0	-0.540513	0.067165	-0.0653624	-0.118528	-0.424182	0.208493	0.93645	0.986966	0	0	-0.0985278	-0.482269	0.0377941	0.937616	1.20261	0	0
0.65	2.84373	1.49403	-1.17677	0.70819	0.304904	1.05811	0.147908	-0.129343	-0.104417	0.873584	-0.169101	0	0	-0.0475073	-0.00437245	-0.444721	0.295826	-0.107533	0	0	-0.541186	0.0742774	-0.0710314	-0.118098	-0.426171	0.210565	0.937837	0.988011	0	0	-0.0944874	-0.488664	0.0353284	0.958996	1.20764	0	0
0.66	2.81281	1.49212	-1.13542	0.706739	0.31699	1.06008	0.16188	-0.124494	-0.134293	0.844013	-0.156374	0	0	-0.0680603	-0.00706509	-0.437266	0.279144	-0.114356	0	0	-0.54188	0.0816775	-0.0758613	-0.118996	-0.427654	0.210142	0.940375	0.988756	0	0	-0.0892224	-0.494302	0.0324861	0.979853	1.21517	0	0
0.67	2.78048	1.49074	-1.09245	0.70534	0.329011	1.06177	0.174527	-0.119155	-0.164389	0.807864	-0.146882	0	0	-0.0879006	-0.00984269	-0.428997	0.262204	-0.121471	0	0	-0.542086	0.0889131	-0.080537	-0.119826	-0.428492	0.208832	0.942452	0.988955	0	0	-0.0837545	-0.499626	0.0290946	1.00079	1.22355	0	0
0.68	2.74964	1.49018	-1.05134	0.704042	0.341011	1.06315	0.186164	-0.114078	-0.191324	0.765998	-0.141638	0	0	-0.107209	-0.0118983	-0.419221	0.244209	-0.128553	0	0	-0.54157	0.0952584	-0.0848361	-0.120512	-0.429052	0.20802	0.943836	0.989814	0	0	-0.0781481	-0.50474	0.0253257	1.02159	1.23272	0	0
0.69	2.72204	1.49025	-1.01374	0.702854	0.353013	1.0642	0.196734	-0.109532	-0.214652	0.720472	-0.139726	0	0	-0.126075	-0.013411	-0.409108	0.226029	-0.135262	0	0	-0.540542	0.100611	-0.0890277	-0.12081	-0.429164	0.207932	0.944171	0.991846	0	0	-0.0724481	-0.509891	0.0214665	1.0422	1.24173	0	0
0.7	2.70216	1.49081	-0.98384	0.701747	0.365065	1.0649	0.207021	-0.105724	-0.233661	0.674051	-0.140295	0	0	-0.14487	-0.0144625	-0.399501	0.208102	-0.142073	0	0	-0.539182	0.104852	-0.0936697	-0.121143	-0.428366	0.207076	0.944065	0.993428	0	0	-0.0670069	-0.515266	0.0174854	1.06262	1.24983	0	0
0.71	2.68249	1.4917	-0.954065	0.700594	0.377046	1.06537	0.211618	-0.103766	-0.249167	0.618096	-0.143942	0	0	-0.163885	-0.014688	-0.386473	0.187818	-0.15526	0	0	-0.538518	0.108523	-0.100724	-0.11827	-0.426307	0.207518	0.941698	0.997264	0	0	-0.0648222	-0.51773	0.00396157	1.08472	1.26685	0	0
0.72	2.54607	1.48507	-0.810551	0.699157	0.388069	1.06735	0.232525	-0.0807055	-0.269687	0.605223	-0.142431	0	0	-0.180728	-0.0271661	-0.373941	0.169491	-0.162107	0	0	-0.543822	0.125087	-0.0944706	-0.111264	-0.429258	0.206405	0.9367	0.998348	0	0	-0.0482732	-0.515537	0.00383207	1.09702	1.27484	0	0
0.73	2.52866	1.48589	-0.783107	0.698184	0.40023	1.06699	0.234356	-0.0757058	-0.283581	0.538933	-0.147787	0	0	-0.197568	-0.0293666	-0.367298	0.155741	-0.164048	0	0	-0.54206	0.128964	-0.0952605	-0.115989	-0.427562	0.197857	0.938504	1.00068	0	0	-0.0372143	-0.522276	0.0101649	1.11317	1.27601	0	0
0.74	2.49788	1.48833	-0.743002	0.697355	0.412435	1.06614	0.233544	-0.0688508	-0.287131	0.460434	-0.163217	0	0	-0.211946	-0.0311544	-0.359624	0.142468	-0.163652	0	0	-0.53791	0.129803	-0.107555	-0.104518	-0.427138	0.215078	0.928327	1.00002	0	0	-0.0432568	-0.525169	-0.0108857	1.13771	1.28805	0	0
0.75	2.46405	1.49161	-0.700472	0.696666	0.424691	1.06478	0.231194	-0.0613853	-0.282462	0.37809	-0.166892	0	0	-0.224206	-0.0332099	-0.355506	0.133081	-0.162489	0	0	-0.533045	0.131416	-0.107939	-0.10906	-0.424633	0.207107	0.928656	1.00271	0	0	-0.0324972	-0.531974	-0.00408802	1.15199	1.288	0	0
0.76	2.42793	1.49548	-0.656439	0.696076	0.437022	1.06301	0.226221	-0.0538083	-0.267602	0.290452	-0.187164	0	0	-0.236032	-0.034469	-0.350799	0.123871	-0.159799	0	0	-0.527788	0.130884	-0.114719	-0.105206	-0.422405	0.212108	0.923499	1.00348	0	0	-0.0314698	-0.536885	-0.0125045	1.171	1.29503	0	0
0.77	2.39789	1.5	-0.619094	0.695532	0.449495	1.06083	0.219703	-0.0484174	-0.248312	0.204164	-0.192335	0	0	-0.247312	-0.0349863	-0.348228	0.116801	-0.158076	0	0	-0.522258	0.129761	-0.116808	-0.10746	-0.420547	0.209583	0.922635	1.0023	0	0	-0.0238241	-0.543562	-0.00911863	1.1853	1.29681	0	0
0.78	2.37154	1.50527	-0.586454	0.694994	0.462093	1.05828	0.212465	-0.045487	-0.225387	0.119889	-0.20614	0	0	-0.25808	-0.0345734	-0.346717	0.111586	-0.154193	0	0	-0.51656	0.127118	-0.120194	-0.107875	-0.418687	0.20947	0.920542	1.00178	0	0	-0.0188317	-0.549579	-0.00919688	1.19999	1.30087	0	0
0.79	2.35949	1.51106	-0.56852	0.694531	0.474881	1.05543	0.205855	-0.0456253	-0.204636	0.0435541	-0.21812	0	0	-0.268856	-0.033416	-0.346102	0.108461	-0.148332	0	0	-0.51132	0.122984	-0.123243	-0.108971	-0.416616	0.209404	0.918688	1.00185	0	0	-0.0135774	-0.556448	-0.00759511	1.214	1.30465	0	0
0.8	2.37118	1.51637	-0.574032	0.694072	0.487921	1.05248	0.204788	-0.0486876	-0.201404	0	-0.219068	0	0	-0.28021	-0.0326077	-0.346424	0.107952	-0.14437	0	0	-0.507246	0.118819	-0.126033	-0.111364	-0.414777	0.209037	0.918143	1.00258	0	0	-0.00733732	-0.563336	-0.00421073	1.22598	1.30765	0	0
0.81	2.41147	1.52032	-0.60928	0.693793	0.50109	1.04954	0.209971	-0.0525791	-0.212807	0	-0.208257	0	0	-0.291964	-0.0329877	-0.349961	0.111897	-0.131768	0	0	-0.506245	0.115293	-0.122174	-0.121564	-0.408655	0.190292	0.922778	1.01379	0	0	0.00712265	-0.573595	0.0137827	1.23395	1.30752	0	0
0.82	2.40589	1.52475	-0.599568	0.693747	0.514536	1.04625	0.220244	-0.0548942	-0.230182	0	-0.172852	0	0	-0.295701	-0.0377958	-0.368141	0.131552	-0.102054	0	0	-0.501703	0.109113	-0.129702	-0.112479	-0.408939	0.21218	0.913339	0.995187	0	0	0.00222113	-0.585283	0.0101394	1.25136	1.31663	0	0
0.83	2.43384	1.5273	-0.623226	0.693615	0.528097	1.0433	0.226588	-0.0556756	-0.244146	0	-0.160866	0	0	-0.303444	-0.0416775	-0.376309	0.144867	-0.0954618	0	0	-0.49993	0.106296	-0.131394	-0.112773	-0.405738	0.212806	0.911027	0.994089	0	0	0.00616433	-0.594447	0.0160236	1.26095	1.32086	0	0
0.84	2.46199	1.53077	-0.64787	0.693614	0.541738	1.04026	0.232074	-0.0569688	-0.248699	0	-0.150301	0	0	-0.309112	-0.0450794	-0.382865	0.160482	-0.0903631	0	0	-0.49772	0.102721	-0.133387	-0.112874	-0.402071	0.213587	0.909331	0.992918	0	0	0.00855696	-0.604393	0.0216018	1.27015	1.32499	0	0
0.85	2.65978	1.53955	-0.841332	0.693592	0.556126	1.03583	0.238796	-0.0680397	-0.245415	0	-0.141681	0	0	-0.31577	-0.0411173	-0.387523	0.175736	-0.0871383	0	0	-0.491086	0.0916386	-0.139585	-0.120281	-0.398004	0.212817	0.913645	0.9917	0	0	0.00585159	-0.615434	0.0245414	1.28004	1.32836	0	0
0.86	2.73058	1.53782	-0.90733	0.693292	0.570276	1.03338	0.239365	-0.0669831	-0.24312	0	-0.139301	0	0	-0.325419	-0.0476846	-0.387184	0.190498	-0.0890001	0	0	-0.49267	0.092968	-0.139636	-0.124103	-0.392098	0.203432	0.914007	1.00306	0	0	0.00998503	-0.622665	0.0325264	1.28416	1.33112	0	0
0.87	2.70766	1.52808	-0.87812	0.692735	0.584622	1.03173	0.234517	-0.0566208	-0.257783	0	-0.16052	0	0	-0.334898	-0.0668612	-0.404461	0.220279	-0.0880062	0	0	-0.501544	0.101126	-0.142487	-0.11572	-0.39567	0.223565	0.909716	0.982126	0	0	0.00524816	-0.627737	0.025834	1.29452	1.35545	0	0
0.88	2.42951	1.5084	-0.60464	0.692573	0.597365	1.03364	0.254893	-0.0349273	-0.293929	0.00047031	-0.169707	0	0	-0.342654	-0.0928644	-0.398468	0.233538	-0.091483	0	0	-0.517219	0.126648	-0.125462	-0.096206	-0.397375	0.230274	0.895179	0.981954	0	0	0.0151839	-0.622231	0.028544	1.291	1.36284	0	0
0.89	2.6992	1.51647	-0.8651	0.69243	0.614528	1.02832	0.228535	-0.0398284	-0.242549	0	-0.171263	0	0	-0.355935	-0.0878821	-0.401454	0.254198	-0.0910996	0	0	-0.508061	0.111499	-0.138155	-0.117335	-0.386911	0.218919	0.904074	0.990188	0	0	0.00216319	-0.637137	0.0328857	1.29759	1.36487	0	0
0.9	2.72641	1.5074	-0.893822	0.692611	0.629959	1.02693	0.217535	-0.0295173	-0.213859	0	-0.225894	0	0	-0.368355	-0.10013	-0.412299	0.27952	-0.100554	0	0	-0.516703	0.115928	-0.13157	-0.121118	-0.381984	0.211042	0.905768	0.993081	0	0	0.00126111	-0.649752	0.0476402	1.30001	1.36562	0	0
